<svg xmlns="http://www.w3.org/2000/svg" aria-hidden="true" style="display:none">
  <symbol id="icon-arrow-left" viewBox="0 0 32 28">
    <path d="M30.667 14L1.333 14M1.333 14L14.167 1.167M1.333 14L14.167 26.833" stroke="#F2F2F2" stroke-width="2" stroke-linecap="round" stroke-linejoin="round"/>
  </symbol>
  <symbol id="icon-arrow-right" viewBox="0 0 32 28">
    <path d="M1.333 14L30.667 14M30.667 14L17.833 1.167M30.667 14L17.833 26.833" stroke="#20126F" stroke-width="2" stroke-linecap="round" stroke-linejoin="round"/>
  </symbol>
  <symbol id="icon-burger" viewBox="0 0 18 12">
    <path d="M1.0376 6H16.0376M1.0376 1H16.0376M1.0376 11H16.0376" stroke="white" stroke-width="2" stroke-linecap="round" stroke-linejoin="round"/>
  </symbol>
  <symbol id="icon-cross" viewBox="0 0 11 12">
    <path d="M1.63967 0.769603L5.49967 4.6296L9.33967 0.789603C9.4245 0.699321 9.52668 0.627098 9.64009 0.577266C9.7535 0.527433 9.87581 0.501018 9.99967 0.499603C10.2649 0.499603 10.5192 0.60496 10.7068 0.792496C10.8943 0.980033 10.9997 1.23439 10.9997 1.4996C11.002 1.62221 10.9793 1.74399 10.9328 1.85748C10.8864 1.97098 10.8173 2.07379 10.7297 2.1596L6.83967 5.9996L10.7297 9.8896C10.8945 10.0508 10.9911 10.2692 10.9997 10.4996C10.9997 10.7648 10.8943 11.0192 10.7068 11.2067C10.5192 11.3942 10.2649 11.4996 9.99967 11.4996C9.87223 11.5049 9.74508 11.4836 9.62629 11.4371C9.50751 11.3907 9.39969 11.32 9.30968 11.2296L5.49967 7.3696L1.64967 11.2196C1.56518 11.3069 1.46424 11.3766 1.35268 11.4246C1.24111 11.4727 1.12114 11.4982 0.999674 11.4996C0.734458 11.4996 0.480104 11.3942 0.292568 11.2067C0.105031 11.0192 -0.000325575 10.7648 -0.000325575 10.4996C-0.00265707 10.377 0.0200898 10.2552 0.0665194 10.1417C0.112949 10.0282 0.182082 9.92542 0.269674 9.8396L4.15967 5.9996L0.269674 2.1096C0.104859 1.94836 0.00821404 1.73002 -0.000325575 1.4996C-0.000325575 1.23439 0.105031 0.980033 0.292568 0.792496C0.480104 0.60496 0.734458 0.499603 0.999674 0.499603C1.23967 0.502603 1.46967 0.599603 1.63967 0.769603Z" fill="#F2F2F2"/>
  </symbol>
</svg>