<svg xmlns="http://www.w3.org/2000/svg" aria-hidden="true" style="display:none">
  <symbol id="icon-arrow-left" viewBox="0 0 32 28">
    <path d="M30.667 14L1.333 14M1.333 14L14.167 1.167M1.333 14L14.167 26.833" stroke="#20126F" stroke-width="2" stroke-linecap="round" stroke-linejoin="round"/>
  </symbol>
  <symbol id="icon-arrow-left-legal" viewBox="0 0 32 28">
    <path d="M30.667 14L1.333 14M1.333 14L14.167 1.167M1.333 14L14.167 26.833" stroke="#F2F2F2" stroke-width="2" stroke-linecap="round" stroke-linejoin="round"/>
  </symbol>
  <symbol id="icon-arrow-right" viewBox="0 0 32 28">
    <path d="M1.333 14L30.667 14M30.667 14L17.833 1.167M30.667 14L17.833 26.833" stroke="#20126F" stroke-width="2" stroke-linecap="round" stroke-linejoin="round"/>
  </symbol>
  <symbol id="icon-burger" viewBox="0 0 18 12">
    <path d="M1.0376 6H16.0376M1.0376 1H16.0376M1.0376 11H16.0376" stroke="white" stroke-width="2" stroke-linecap="round" stroke-linejoin="round"/>
  </symbol>
  <symbol id="icon-cross" viewBox="0 0 11 12">
    <path d="M1.63967 0.769603L5.49967 4.6296L9.33967 0.789603C9.4245 0.699321 9.52668 0.627098 9.64009 0.577266C9.7535 0.527433 9.87581 0.501018 9.99967 0.499603C10.2649 0.499603 10.5192 0.60496 10.7068 0.792496C10.8943 0.980033 10.9997 1.23439 10.9997 1.4996C11.002 1.62221 10.9793 1.74399 10.9328 1.85748C10.8864 1.97098 10.8173 2.07379 10.7297 2.1596L6.83967 5.9996L10.7297 9.8896C10.8945 10.0508 10.9911 10.2692 10.9997 10.4996C10.9997 10.7648 10.8943 11.0192 10.7068 11.2067C10.5192 11.3942 10.2649 11.4996 9.99967 11.4996C9.87223 11.5049 9.74508 11.4836 9.62629 11.4371C9.50751 11.3907 9.39969 11.32 9.30968 11.2296L5.49967 7.3696L1.64967 11.2196C1.56518 11.3069 1.46424 11.3766 1.35268 11.4246C1.24111 11.4727 1.12114 11.4982 0.999674 11.4996C0.734458 11.4996 0.480104 11.3942 0.292568 11.2067C0.105031 11.0192 -0.000325575 10.7648 -0.000325575 10.4996C-0.00265707 10.377 0.0200898 10.2552 0.0665194 10.1417C0.112949 10.0282 0.182082 9.92542 0.269674 9.8396L4.15967 5.9996L0.269674 2.1096C0.104859 1.94836 0.00821404 1.73002 -0.000325575 1.4996C-0.000325575 1.23439 0.105031 0.980033 0.292568 0.792496C0.480104 0.60496 0.734458 0.499603 0.999674 0.499603C1.23967 0.502603 1.46967 0.599603 1.63967 0.769603Z" fill="#F2F2F2"/>
  </symbol>
  <symbol id="icon-star" viewBox="0 0 84 80">
    <defs>
      <linearGradient id="icon-star-gradient" x1="83.6109" y1="81.6999" x2="-1.65471" y2="1.29835" gradientUnits="userSpaceOnUse">
        <stop stop-color="#FF6F47"/>
        <stop offset="1" stop-color="#FFCD0F"/>
      </linearGradient>
    </defs>
    <path d="M37.0352 3.7336C37.509 2.77379 38.242 1.96568 39.1511 1.40063C40.0603 0.835582 41.1094 0.536133 42.1798 0.536133C43.2502 0.536133 44.2993 0.835582 45.2084 1.40063C46.1176 1.96568 46.8505 2.77379 47.3244 3.7336L57.0208 23.3814L78.7022 26.5306C79.7621 26.6835 80.7581 27.1299 81.5774 27.8195C82.3968 28.509 83.0068 29.4141 83.3385 30.4323C83.6702 31.4506 83.7103 32.5413 83.4542 33.5812C83.1982 34.621 82.6562 35.5684 81.8897 36.3162L66.1944 51.6162L69.8983 73.2084C70.0783 74.2633 69.9597 75.3475 69.5558 76.3386C69.152 77.3297 68.479 78.188 67.6129 78.8167C66.7469 79.4453 65.7222 79.8192 64.6548 79.8961C63.5874 79.973 62.5198 79.7499 61.5725 79.2519L42.1798 69.0646L22.787 79.2646C21.8388 79.7637 20.7696 79.9873 19.7008 79.91C18.632 79.8327 17.6062 79.4577 16.7396 78.8273C15.873 78.1969 15.2002 77.3365 14.7976 76.3434C14.3949 75.3503 14.2784 74.2643 14.4613 73.2084L18.1588 51.6162L2.47629 36.3226C1.70987 35.5752 1.16783 34.6283 0.911461 33.5889C0.655094 32.5496 0.694623 31.4592 1.02558 30.4411C1.35654 29.4231 1.96572 28.5179 2.78425 27.8279C3.60278 27.138 4.59801 26.6908 5.65741 26.537L27.3324 23.3877L37.0352 3.7336Z"
          fill="url(#icon-star-gradient)"/>
  </symbol>
  <symbol id="icon-star-black" viewBox="0 0 20 21">
    <path d="M7.15299 3.908C8.41999 1.636 9.05299 0.5 9.99999 0.5C10.947 0.5 11.58 1.636 12.847 3.908L13.175 4.496C13.535 5.142 13.715 5.465 13.995 5.678C14.275 5.891 14.625 5.97 15.325 6.128L15.961 6.272C18.421 6.829 19.65 7.107 19.943 8.048C20.235 8.988 19.397 9.969 17.72 11.93L17.286 12.437C16.81 12.994 16.571 13.273 16.464 13.617C16.357 13.962 16.393 14.334 16.465 15.077L16.531 15.754C16.784 18.371 16.911 19.679 16.145 20.26C15.379 20.841 14.227 20.311 11.925 19.251L11.328 18.977C10.674 18.675 10.347 18.525 9.99999 18.525C9.65299 18.525 9.32599 18.675 8.67199 18.977L8.07599 19.251C5.77299 20.311 4.62099 20.841 3.85599 20.261C3.08899 19.679 3.21599 18.371 3.46899 15.754L3.53499 15.078C3.60699 14.334 3.64299 13.962 3.53499 13.618C3.42899 13.273 3.18999 12.994 2.71399 12.438L2.27999 11.93C0.602991 9.97 -0.235009 8.989 0.0569909 8.048C0.348991 7.107 1.57999 6.828 4.03999 6.272L4.67599 6.128C5.37499 5.97 5.72399 5.891 6.00499 5.678C6.28599 5.465 6.46499 5.142 6.82499 4.496L7.15299 3.908Z" fill="#2D2D2D"/>
  </symbol>
  <symbol id="icon-download" viewBox="0 0 65 98">
  <g fill="none" stroke="#FF982F" stroke-width="4" stroke-linecap="round" stroke-linejoin="round">
    <path d="M62.2571 89.9995V95.1665H2.09009V89.9995H62.2571Z"/>
    <path d="M62.2571 71.6665V76.8335H2.09009V71.6665H62.2571Z"/>
    <path d="M43.9231 2.9165V30.4165H59.429L32.1731 57.6714L4.91821 30.4165H20.4231V2.9165H43.9231Z"/>
  </g>
</symbol>
  <symbol id="icon-message" viewBox="0 0 111 97">
    <path d="M6.12378 96.3333C5.55239 96.3333 4.99088 96.129 4.55945 95.741C3.92878 95.1772 3.68014 94.3205 3.91396 93.5224L9.52412 74.4592C3.72954 66.6807 0.67334 57.6716 0.67334 48.3333C0.67334 41.8247 2.14051 35.5126 5.03204 29.5725C7.81654 23.8526 11.7982 18.7187 16.8666 14.3147C27.2438 5.29937 41.0247 0.333252 55.6733 0.333252C70.322 0.333252 84.1029 5.29937 94.4801 14.3147C99.5485 18.7187 103.53 23.8526 106.315 29.5725C109.206 35.5141 110.673 41.8247 110.673 48.3333C110.673 54.8418 109.206 61.1524 106.315 67.094C103.53 72.8139 99.5485 77.9479 94.4801 82.3518C84.1029 91.3687 70.3204 96.3333 55.6733 96.3333C45.4558 96.3333 35.5265 93.8835 26.8782 89.2372L6.90758 96.2002C6.65235 96.2889 6.38724 96.3333 6.12542 96.3333H6.12378ZM27.094 84.6052C27.4957 84.6052 27.8975 84.7066 28.2532 84.9061C36.4157 89.4922 45.8971 91.9151 55.6733 91.9151C69.1809 91.9151 81.87 87.3543 91.4009 79.0722C100.867 70.8471 106.081 59.9298 106.081 48.3317C106.081 36.7335 100.867 25.8147 91.4009 17.5896C81.87 9.30742 69.1809 4.7467 55.6733 4.7467C42.1658 4.7467 29.4783 9.30742 19.9458 17.5896C10.4792 25.8147 5.26587 36.7319 5.26587 48.3317C5.26587 57.0636 8.24302 65.4866 13.8746 72.6935C14.306 73.2446 14.4443 73.9588 14.2484 74.6223L9.55376 90.5769L26.3118 84.7351C26.5654 84.6464 26.8305 84.6037 27.094 84.6037V84.6052Z" fill="#FF982F"/>
    <path d="M73.1691 63.873H25.9874C24.7195 63.873 23.6903 62.8849 23.6903 61.6639C23.6903 60.443 24.7178 59.4548 25.9874 59.4548H73.1691C74.437 59.4548 75.4662 60.443 75.4662 61.6639C75.4662 62.8849 74.4386 63.873 73.1691 63.873Z" fill="#FF982F"/>
    <path d="M85.3593 50.5425H25.9874C24.7195 50.5425 23.6903 49.5543 23.6903 48.3334C23.6903 47.1124 24.7178 46.1243 25.9874 46.1243H85.3593C86.6272 46.1243 87.6564 47.1124 87.6564 48.3334C87.6564 49.5543 86.6288 50.5425 85.3593 50.5425Z" fill="#FF982F"/>
    <path d="M85.3593 37.2117H25.9874C24.7195 37.2117 23.6903 36.2235 23.6903 35.0026C23.6903 33.7816 24.7178 32.7935 25.9874 32.7935H85.3593C86.6272 32.7935 87.6564 33.7816 87.6564 35.0026C87.6564 36.2235 86.6288 37.2117 85.3593 37.2117Z" fill="#FF982F"/>
  </symbol>
  <symbol id="icon-wifi" viewBox="0 0 104 77">
    <path fill-rule="evenodd" clip-rule="evenodd" d="M94.7158 28.8914C83.4344 17.6107 68.134 11.2733 52.1802 11.2733C36.2264 11.2733 20.9259 17.6107 9.64455 28.8914C8.67251 29.8311 7.37027 30.3514 6.01831 30.3403C4.66635 30.3292 3.37283 29.7876 2.41637 28.832C1.4599 27.8764 0.917017 26.5834 0.904635 25.2315C0.892254 23.8795 1.41137 22.5768 2.35017 21.6039C29.8708 -5.92362 74.4895 -5.92362 102.01 21.6039C102.502 22.0798 102.895 22.6489 103.165 23.2781C103.435 23.9073 103.577 24.584 103.582 25.2686C103.588 25.9533 103.457 26.6322 103.198 27.2658C102.938 27.8993 102.555 28.4748 102.071 28.9587C101.586 29.4426 101.01 29.8252 100.377 30.0842C99.7427 30.3432 99.0637 30.4733 98.3791 30.467C97.6944 30.4608 97.0179 30.3182 96.3889 30.0477C95.76 29.7772 95.1912 29.3841 94.7158 28.8914ZM80.1339 43.4733C76.4631 39.8022 72.1051 36.8901 67.3087 34.9033C62.5124 32.9165 57.3717 31.8939 52.1802 31.8939C46.9886 31.8939 41.8479 32.9165 37.0516 34.9033C32.2553 36.8901 27.8973 39.8022 24.2264 43.4733C23.249 44.3841 21.9562 44.8799 20.6203 44.8563C19.2845 44.8328 18.01 44.2916 17.0653 43.3469C16.1206 42.4022 15.5794 41.1277 15.5558 39.7918C15.5323 38.456 16.0281 37.1632 16.9389 36.1858C26.2861 26.8404 38.9626 21.5905 52.1802 21.5905C65.3978 21.5905 78.0742 26.8404 87.4214 36.1858C88.3322 37.1632 88.8281 38.456 88.8045 39.7918C88.7809 41.1277 88.2398 42.4022 87.2951 43.3469C86.3504 44.2916 85.0758 44.8328 83.74 44.8563C82.4042 44.8799 81.1114 44.3841 80.1339 43.4733ZM65.5452 58.062C61.9996 54.5166 57.1908 52.5248 52.1767 52.5248C47.1626 52.5248 42.3539 54.5166 38.8083 58.062C38.3324 58.5542 37.7633 58.9468 37.1341 59.2167C36.5048 59.4867 35.8282 59.6286 35.1435 59.6342C34.4589 59.6398 33.78 59.509 33.1464 59.2495C32.5129 58.9899 31.9373 58.6068 31.4534 58.1224C30.9695 57.6381 30.5869 57.0622 30.328 56.4284C30.069 55.7946 29.9389 55.1155 29.9451 54.4309C29.9514 53.7463 30.094 53.0697 30.3645 52.4408C30.635 51.8118 31.0281 51.243 31.5208 50.7676C37.0003 45.2889 44.4316 42.2111 52.1802 42.2111C59.9288 42.2111 67.3601 45.2889 72.8395 50.7676C73.7503 51.7451 74.2462 53.0379 74.2226 54.3737C74.1991 55.7095 73.6579 56.9841 72.7132 57.9288C71.7685 58.8735 70.494 59.4146 69.1581 59.4382C67.8223 59.4618 66.5295 58.9659 65.552 58.0551M46.1096 65.3426C46.9076 64.5444 47.855 63.9112 48.8978 63.4792C49.9406 63.0471 51.0583 62.8248 52.187 62.8248C53.3158 62.8248 54.4335 63.0471 55.4763 63.4792C56.519 63.9112 57.4665 64.5444 58.2645 65.3426C59.2301 66.3094 59.7725 67.62 59.7725 68.9864C59.7725 70.3528 59.2301 71.6633 58.2645 72.6301L55.8239 75.0707C54.8571 76.0363 53.5466 76.5787 52.1802 76.5787C50.8138 76.5787 49.5032 76.0363 48.5364 75.0707L46.1027 72.637C45.1371 71.6702 44.5947 70.3597 44.5947 68.9932C44.5947 67.6268 45.1371 66.3163 46.1027 65.3495" fill="#FF982F"/>
  </symbol>
</svg>